<svg width="33" height="33" viewBox="0 0 33 33" fill="none" xmlns="http://www.w3.org/2000/svg">
<path d="M33 16.5C33 25.6127 25.6127 33 16.5 33C7.3873 33 0 25.6127 0 16.5C0 7.3873 7.3873 0 16.5 0C25.6127 0 33 7.3873 33 16.5Z" fill="#7289DA"/>
<path d="M22.1854 9.07489H10.8145C9.85564 9.07489 9.07495 9.83389 9.07495 10.7744V21.9284C9.07495 22.8689 9.85564 23.6279 10.8145 23.6279H20.4373L19.9876 22.1016L21.0738 23.0834L22.1005 24.0074L23.925 25.5749V10.7744C23.925 9.83389 23.1443 9.07489 22.1854 9.07489ZM18.9099 19.8494C18.9099 19.8494 18.6044 19.4946 18.3498 19.1811C19.4615 18.8759 19.8858 18.1994 19.8858 18.1994C19.5378 18.4221 19.2069 18.5789 18.9099 18.6861C18.4856 18.8594 18.0783 18.9749 17.6795 19.0409C16.8648 19.1894 16.1181 19.1481 15.4817 19.0326C14.998 18.9419 14.5822 18.8099 14.2343 18.6779C14.0391 18.6036 13.827 18.5129 13.6148 18.3974C13.5894 18.3809 13.5639 18.3726 13.5384 18.3561C13.5215 18.3479 13.513 18.3396 13.5045 18.3314C13.3518 18.2489 13.2669 18.1911 13.2669 18.1911C13.2669 18.1911 13.6742 18.8511 14.7519 19.1646C14.4973 19.4781 14.1834 19.8494 14.1834 19.8494C12.308 19.7916 11.5952 18.5954 11.5952 18.5954C11.5952 15.9389 12.8172 13.7856 12.8172 13.7856C14.0391 12.8946 15.2016 12.9194 15.2016 12.9194L15.2865 13.0184C13.7591 13.4474 13.0548 14.0991 13.0548 14.0991C13.0548 14.0991 13.2414 14.0001 13.5554 13.8599C14.4634 13.4721 15.1847 13.3649 15.4817 13.3401C15.5326 13.3319 15.575 13.3236 15.6259 13.3236C16.1436 13.2576 16.7291 13.2411 17.34 13.3071C18.1462 13.3979 19.0117 13.6289 19.8942 14.0991C19.8942 14.0991 19.2239 13.4804 17.7813 13.0514L17.9001 12.9194C17.9001 12.9194 19.0626 12.8946 20.2846 13.7856C20.2846 13.7856 21.5065 15.9389 21.5065 18.5954C21.5065 18.5954 20.7852 19.7916 18.9099 19.8494ZM14.964 15.9966C14.4804 15.9966 14.0985 16.4091 14.0985 16.9124C14.0985 17.4156 14.4888 17.8281 14.964 17.8281C15.4477 17.8281 15.8296 17.4156 15.8296 16.9124C15.8381 16.4091 15.4477 15.9966 14.964 15.9966ZM18.0613 15.9966C17.5776 15.9966 17.1958 16.4091 17.1958 16.9124C17.1958 17.4156 17.5861 17.8281 18.0613 17.8281C18.545 17.8281 18.9269 17.4156 18.9269 16.9124C18.9269 16.4091 18.545 15.9966 18.0613 15.9966Z" fill="white"/>
</svg>
