<svg width="33" height="33" viewBox="0 0 33 33" fill="none" xmlns="http://www.w3.org/2000/svg">
<circle cx="16.5" cy="16.5" r="16.5" fill="url(#paint0_linear)"/>
<path d="M21.929 9.90015H11.8958C10.763 9.90015 9.8999 10.7632 9.8999 11.896V21.9293C9.8999 23.0621 10.763 23.9252 11.8958 23.9252H21.929C23.0618 23.9252 23.9249 23.0621 23.9249 21.9293V11.896C23.9249 10.7632 23.0618 9.90015 21.929 9.90015ZM16.9124 21.1202C19.2319 21.1202 21.1199 19.2861 21.1199 17.0745C21.1199 16.6969 21.066 16.2653 20.9581 15.9417H22.1448V21.6596C22.1448 21.9293 21.929 22.199 21.6054 22.199H12.2194C11.9497 22.199 11.68 21.9832 11.68 21.6596V15.8878H12.9207C12.8128 16.2653 12.7588 16.6429 12.7588 17.0205C12.7049 19.2861 14.5929 21.1202 16.9124 21.1202ZM16.9124 19.5019C15.402 19.5019 14.2153 18.3152 14.2153 16.8587C14.2153 15.4023 15.402 14.2155 16.9124 14.2155C18.4228 14.2155 19.6095 15.4023 19.6095 16.8587C19.6095 18.3691 18.4228 19.5019 16.9124 19.5019ZM22.0909 13.7301C22.0909 14.0537 21.8212 14.3234 21.4975 14.3234H19.9871C19.6635 14.3234 19.3938 14.0537 19.3938 13.7301V12.2736C19.3938 11.95 19.6635 11.6802 19.9871 11.6802H21.4975C21.8212 11.6802 22.0909 11.95 22.0909 12.2736V13.7301Z" fill="white"/>
<defs>
<linearGradient id="paint0_linear" x1="7.0125" y1="29.2875" x2="28.875" y2="6.6" gradientUnits="userSpaceOnUse">
<stop stop-color="#EEA054"/>
<stop offset="0.502762" stop-color="#D64763"/>
<stop offset="1" stop-color="#B62A99"/>
</linearGradient>
</defs>
</svg>
