<svg width="33" height="33" viewBox="0 0 33 33" fill="none" xmlns="http://www.w3.org/2000/svg">
<circle cx="16.5" cy="16.5" r="16.5" fill="#2878B7"/>
<path d="M23.1 17.1143V21.6647H20.4363V17.3917C20.4363 16.3374 20.0478 15.616 19.1045 15.616C18.3831 15.616 17.9391 16.1154 17.7726 16.5593C17.7171 16.7258 17.6616 16.9478 17.6616 17.2253V21.6647H14.998C14.998 21.6647 15.0535 14.4506 14.998 13.7292H17.6616V14.839C17.9946 14.2841 18.6605 13.5072 20.0478 13.5072C21.7681 13.5072 23.1 14.6726 23.1 17.1143ZM12.2233 9.90015C11.3354 9.90015 10.725 10.5106 10.725 11.2875C10.725 12.0644 11.2799 12.6748 12.1678 12.6748C13.1112 12.6748 13.6661 12.0644 13.6661 11.2875C13.7216 10.4551 13.1667 9.90015 12.2233 9.90015ZM10.8915 21.6647H13.5551V13.7292H10.8915V21.6647Z" fill="white"/>
</svg>
