<svg width="2140" height="296" viewBox="0 0 2140 296" fill="none" xmlns="http://www.w3.org/2000/svg">
<path d="M399 76H419V198.6H494.8V216H399V76ZM510.375 66.4C514.108 66.4 517.175 67.7333 519.575 70.4C522.108 72.9333 523.375 76.1333 523.375 80C523.375 82 523.175 84 522.775 86C522.375 87.8667 521.508 90.6 520.175 94.2L510.575 122.2H497.975L505.375 92.4C502.842 91.4667 500.775 89.9333 499.175 87.8C497.708 85.5333 496.975 82.9333 496.975 80C496.975 76 498.242 72.7333 500.775 70.2C503.308 67.6667 506.508 66.4 510.375 66.4ZM616.888 217.6C602.754 217.6 590.021 214.533 578.688 208.4C567.354 202.133 558.421 193.533 551.888 182.6C545.488 171.667 542.288 159.467 542.288 146C542.288 132.533 545.488 120.333 551.888 109.4C558.421 98.4667 567.354 89.9333 578.688 83.8C590.021 77.5333 602.754 74.4 616.888 74.4C630.888 74.4 643.554 77.5333 654.888 83.8C666.221 89.9333 675.088 98.4667 681.488 109.4C687.888 120.2 691.088 132.4 691.088 146C691.088 159.6 687.888 171.867 681.488 182.8C675.088 193.6 666.221 202.133 654.888 208.4C643.554 214.533 630.888 217.6 616.888 217.6ZM616.888 199.8C627.154 199.8 636.354 197.467 644.488 192.8C652.754 188.133 659.221 181.733 663.888 173.6C668.688 165.333 671.088 156.133 671.088 146C671.088 135.867 668.688 126.733 663.888 118.6C659.221 110.333 652.754 103.867 644.488 99.2C636.354 94.5333 627.154 92.2 616.888 92.2C606.621 92.2 597.288 94.5333 588.888 99.2C580.621 103.867 574.088 110.333 569.288 118.6C564.621 126.733 562.288 135.867 562.288 146C562.288 156.133 564.621 165.333 569.288 173.6C574.088 181.733 580.621 188.133 588.888 192.8C597.288 197.467 606.621 199.8 616.888 199.8ZM776.256 76C794.39 76 808.656 80.3333 819.056 89C829.456 97.6667 834.656 109.6 834.656 124.8C834.656 140 829.456 151.933 819.056 160.6C808.656 169.267 794.39 173.6 776.256 173.6H741.656V216H721.656V76H776.256ZM775.656 156.2C788.323 156.2 797.99 153.533 804.656 148.2C811.323 142.733 814.656 134.933 814.656 124.8C814.656 114.667 811.323 106.933 804.656 101.6C797.99 96.1333 788.323 93.4 775.656 93.4H741.656V156.2H775.656ZM965.639 198.6V216H864.039V76H962.839V93.4H884.039V136.4H954.239V153.4H884.039V198.6H965.639ZM1118.42 76V216H1102.02L1018.02 111.6V216H998.023V76H1014.42L1098.42 180.4V76H1118.42ZM1254.53 143.4C1262.66 145.667 1269.06 149.8 1273.73 155.8C1278.39 161.667 1280.73 169.133 1280.73 178.2C1280.73 190.333 1276.13 199.667 1266.93 206.2C1257.86 212.733 1244.59 216 1227.13 216H1160.33V76H1223.13C1239.13 76 1251.46 79.2 1260.13 85.6C1268.93 92 1273.33 100.867 1273.33 112.2C1273.33 119.533 1271.59 125.867 1268.13 131.2C1264.79 136.533 1260.26 140.6 1254.53 143.4ZM1180.33 92.2V137H1221.33C1231.59 137 1239.46 135.133 1244.93 131.4C1250.53 127.533 1253.33 121.933 1253.33 114.6C1253.33 107.267 1250.53 101.733 1244.93 98C1239.46 94.1333 1231.59 92.2 1221.33 92.2H1180.33ZM1226.33 199.8C1237.66 199.8 1246.19 197.933 1251.93 194.2C1257.66 190.467 1260.53 184.6 1260.53 176.6C1260.53 161 1249.13 153.2 1226.33 153.2H1180.33V199.8H1226.33ZM1311.7 76H1331.7V198.6H1407.5V216H1311.7V76ZM1491.11 217.6C1476.97 217.6 1464.24 214.533 1452.91 208.4C1441.57 202.133 1432.64 193.533 1426.11 182.6C1419.71 171.667 1416.51 159.467 1416.51 146C1416.51 132.533 1419.71 120.333 1426.11 109.4C1432.64 98.4667 1441.57 89.9333 1452.91 83.8C1464.24 77.5333 1476.97 74.4 1491.11 74.4C1505.11 74.4 1517.77 77.5333 1529.11 83.8C1540.44 89.9333 1549.31 98.4667 1555.71 109.4C1562.11 120.2 1565.31 132.4 1565.31 146C1565.31 159.6 1562.11 171.867 1555.71 182.8C1549.31 193.6 1540.44 202.133 1529.11 208.4C1517.77 214.533 1505.11 217.6 1491.11 217.6ZM1491.11 199.8C1501.37 199.8 1510.57 197.467 1518.71 192.8C1526.97 188.133 1533.44 181.733 1538.11 173.6C1542.91 165.333 1545.31 156.133 1545.31 146C1545.31 135.867 1542.91 126.733 1538.11 118.6C1533.44 110.333 1526.97 103.867 1518.71 99.2C1510.57 94.5333 1501.37 92.2 1491.11 92.2C1480.84 92.2 1471.51 94.5333 1463.11 99.2C1454.84 103.867 1448.31 110.333 1443.51 118.6C1438.84 126.733 1436.51 135.867 1436.51 146C1436.51 156.133 1438.84 165.333 1443.51 173.6C1448.31 181.733 1454.84 188.133 1463.11 192.8C1471.51 197.467 1480.84 199.8 1491.11 199.8ZM1692.88 145.2H1712.08V199.8C1705.14 205.533 1697.08 209.933 1687.87 213C1678.68 216.067 1669.08 217.6 1659.08 217.6C1644.94 217.6 1632.21 214.533 1620.88 208.4C1609.54 202.133 1600.61 193.6 1594.08 182.8C1587.68 171.867 1584.48 159.6 1584.48 146C1584.48 132.4 1587.68 120.133 1594.08 109.2C1600.61 98.2667 1609.54 89.7333 1620.88 83.6C1632.34 77.4667 1645.21 74.4 1659.48 74.4C1670.68 74.4 1680.81 76.2667 1689.88 80C1699.08 83.6 1706.88 88.9333 1713.28 96L1700.88 108.4C1689.68 97.6 1676.14 92.2 1660.28 92.2C1649.61 92.2 1640.01 94.5333 1631.48 99.2C1623.08 103.733 1616.48 110.133 1611.68 118.4C1606.88 126.533 1604.48 135.733 1604.48 146C1604.48 156.133 1606.88 165.333 1611.68 173.6C1616.48 181.733 1623.08 188.133 1631.48 192.8C1640.01 197.467 1649.54 199.8 1660.08 199.8C1672.61 199.8 1683.54 196.8 1692.88 190.8V145.2Z" fill="black"/>
<circle cx="147.5" cy="147.5" r="147.5" fill="#002079"/>
<circle cx="147.5" cy="147.5" r="147.5" fill="url(#paint0_linear)"/>
<g clip-path="url(#clip0)" filter="url(#filter0_dddd)">
<path d="M213.666 79.62C212.804 79.3851 211.883 79.6797 211.317 80.3721C196.738 98.1911 179.641 97.8014 161.56 97.3801C156.089 97.2578 150.46 97.1536 144.796 97.5319C144.671 97.5288 144.546 97.5371 144.422 97.5568C143.824 97.5976 143.229 97.618 142.633 97.6723C133.848 98.4526 125.31 100.995 117.529 105.148C117.346 105.215 117.173 105.306 117.014 105.417C103.335 112.758 93.1122 125.208 88.5734 140.054C84.6649 153.338 85.8632 167.603 91.9329 180.048C91.2238 181.181 90.2882 182.608 88.8588 184.753C83.1798 193.197 79.915 203.031 79.417 213.194C79.417 214.445 80.4312 215.46 81.6823 215.46H104.335C105.587 215.46 106.601 214.445 106.601 213.194C106.601 211.943 105.587 210.929 104.335 210.929H87.1508L94.6105 203.469C95.0159 203.065 95.2531 202.522 95.2742 201.949C95.6116 196.289 96.3497 190.66 97.4829 185.104C101.859 186.887 106.544 187.788 111.27 187.757C124.879 187.704 137.511 180.675 144.731 169.138C156.721 151.152 157.115 150.937 167.193 145.384C171.615 142.947 177.675 139.61 187.112 133.541C219.69 112.614 215.504 82.7235 215.309 81.4617C215.173 80.5774 214.529 79.8557 213.666 79.62V79.62ZM90.7911 200.882L84.6567 207.015C85.9389 200.095 88.5723 193.497 92.4063 187.596C91.6268 191.992 91.0876 196.428 90.7911 200.882V200.882ZM184.661 129.738L184.496 129.842C182.201 129.583 180.002 128.777 178.083 127.493C177.042 126.799 175.635 127.08 174.941 128.12C174.246 129.161 174.527 130.568 175.568 131.262C176.725 132.02 177.961 132.651 179.254 133.143C172.943 137.041 168.455 139.522 165.005 141.422C160.776 143.425 156.902 146.103 153.534 149.351C149.483 149.9 145.359 149.345 141.598 147.743C140.479 147.18 139.116 147.63 138.553 148.748C137.99 149.867 138.44 151.23 139.559 151.793C142.715 153.269 146.158 154.028 149.642 154.018C147.646 156.684 145.272 160.181 142.121 164.891C136.458 167.396 128.429 169.465 121.203 165.858C120.085 165.312 118.736 165.769 118.181 166.883C117.626 167.997 118.073 169.35 119.182 169.913C122.47 171.538 126.094 172.367 129.761 172.335C132.284 172.316 134.794 171.989 137.237 171.361C127.677 182.525 112.005 186.247 98.4456 180.574C98.9123 178.569 99.4356 176.496 100.045 174.344C112.944 140.061 128.683 135.381 150.462 128.893C164.012 125.323 177.056 120.055 189.285 113.215C190.022 112.829 190.489 112.07 190.5 111.238C190.511 110.406 190.065 109.635 189.339 109.229C188.612 108.824 187.722 108.849 187.019 109.296C175.1 115.95 162.39 121.078 149.189 124.557C127.029 131.151 109.523 136.364 95.8337 172.734L94.8438 174.709L94.6852 175.026C90.3108 164.324 89.6896 152.455 92.9228 141.354C92.984 141.153 93.0655 140.96 93.1289 140.759C93.6926 142.782 94.5464 144.713 95.6638 146.492C96.3582 147.533 97.7649 147.814 98.8058 147.12C99.8467 146.425 100.128 145.019 99.4333 143.978C97.6163 140.655 96.4905 136.998 96.1237 133.229C99.8716 125.674 105.331 119.099 112.067 114.026C109.977 118.875 108.888 124.097 108.866 129.378C108.866 130.629 109.88 131.643 111.131 131.643C112.383 131.643 113.397 130.629 113.397 129.378C113.489 122.11 115.742 115.034 119.869 109.051C125.999 105.805 132.641 103.635 139.504 102.633C138.302 104.331 137.228 106.116 136.29 107.973C135.926 108.696 135.975 109.559 136.42 110.236C136.864 110.913 137.636 111.302 138.445 111.256C139.254 111.209 139.976 110.735 140.34 110.011C141.799 107.122 143.626 104.434 145.777 102.015C151.012 101.705 156.302 101.788 161.446 101.915C163.259 101.958 165.082 101.997 166.903 102.019C166.358 103.374 165.908 104.765 165.558 106.183C165.363 106.969 165.602 107.799 166.185 108.361C166.768 108.923 167.606 109.131 168.384 108.907C169.163 108.683 169.762 108.061 169.957 107.275C170.395 105.452 171.046 103.686 171.896 102.015C185.434 101.809 198.935 99.5933 210.971 87.5169C210.563 96.6144 206.818 115.494 184.661 129.738V129.738Z" fill="white"/>
<path d="M185.887 215.46C187.138 215.46 188.152 214.445 188.152 213.194C188.152 211.943 187.138 210.929 185.887 210.929H113.397C112.146 210.929 111.131 211.943 111.131 213.194C111.131 214.445 112.146 215.46 113.397 215.46H185.887Z" fill="white"/>
</g>
<defs>
<filter id="filter0_dddd" x="75.417" y="78.764" width="144.166" height="145.472" filterUnits="userSpaceOnUse" color-interpolation-filters="sRGB">
<feFlood flood-opacity="0" result="BackgroundImageFix"/>
<feColorMatrix in="SourceAlpha" type="matrix" values="0 0 0 0 0 0 0 0 0 0 0 0 0 0 0 0 0 0 127 0"/>
<feOffset dy="4"/>
<feGaussianBlur stdDeviation="2"/>
<feColorMatrix type="matrix" values="0 0 0 0 0 0 0 0 0 0 0 0 0 0 0 0 0 0 0.25 0"/>
<feBlend mode="normal" in2="BackgroundImageFix" result="effect1_dropShadow"/>
<feColorMatrix in="SourceAlpha" type="matrix" values="0 0 0 0 0 0 0 0 0 0 0 0 0 0 0 0 0 0 127 0"/>
<feOffset dy="4"/>
<feGaussianBlur stdDeviation="2"/>
<feColorMatrix type="matrix" values="0 0 0 0 0 0 0 0 0 0 0 0 0 0 0 0 0 0 0.25 0"/>
<feBlend mode="normal" in2="effect1_dropShadow" result="effect2_dropShadow"/>
<feColorMatrix in="SourceAlpha" type="matrix" values="0 0 0 0 0 0 0 0 0 0 0 0 0 0 0 0 0 0 127 0"/>
<feOffset dy="4"/>
<feGaussianBlur stdDeviation="2"/>
<feColorMatrix type="matrix" values="0 0 0 0 0 0 0 0 0 0 0 0 0 0 0 0 0 0 0.25 0"/>
<feBlend mode="normal" in2="effect2_dropShadow" result="effect3_dropShadow"/>
<feColorMatrix in="SourceAlpha" type="matrix" values="0 0 0 0 0 0 0 0 0 0 0 0 0 0 0 0 0 0 127 0"/>
<feOffset dy="4"/>
<feGaussianBlur stdDeviation="2"/>
<feColorMatrix type="matrix" values="0 0 0 0 0 0 0 0 0 0 0 0 0 0 0 0 0 0 0.25 0"/>
<feBlend mode="normal" in2="effect3_dropShadow" result="effect4_dropShadow"/>
<feBlend mode="normal" in="SourceGraphic" in2="effect4_dropShadow" result="shape"/>
</filter>
<linearGradient id="paint0_linear" x1="147.5" y1="0" x2="147.5" y2="295" gradientUnits="userSpaceOnUse">
<stop stop-color="#2E55C2"/>
<stop offset="1" stop-color="white" stop-opacity="0"/>
</linearGradient>
<clipPath id="clip0">
<rect width="136.166" height="137.472" fill="white" transform="translate(79.417 78.764)"/>
</clipPath>
</defs>
</svg>
