<svg width="33" height="33" viewBox="0 0 33 33" fill="none" xmlns="http://www.w3.org/2000/svg">
<circle cx="16.5" cy="16.5" r="16.5" fill="#55ACE3"/>
<path d="M25.2449 12.2925C24.6674 12.54 24.0075 12.705 23.3475 12.7875C24.0075 12.375 24.5849 11.715 24.8324 10.9725C24.1724 11.385 23.5124 11.6325 22.6874 11.7975C22.1099 11.1375 21.2024 10.725 20.2949 10.725C18.4799 10.725 16.9949 12.21 16.9949 14.025C16.9949 14.2725 16.9949 14.52 17.0774 14.7675C14.3549 14.6025 11.8799 13.2825 10.2299 11.3025C9.98245 11.7975 9.81745 12.375 9.81745 12.9525C9.81745 14.1075 10.3949 15.0975 11.3024 15.675C10.7249 15.675 10.2299 15.51 9.81745 15.2625C9.81745 16.83 10.9724 18.2325 12.4574 18.48C12.2099 18.5625 11.88 18.5625 11.55 18.5625C11.3025 18.5625 11.1374 18.5625 10.8899 18.48C11.3024 19.8 12.54 20.79 14.025 20.79C12.87 21.6975 11.4675 22.1925 9.89995 22.1925C9.65245 22.1925 9.40495 22.1925 9.07495 22.11C10.56 23.0175 12.2924 23.595 14.1899 23.595C20.2949 23.595 23.5949 18.5625 23.5949 14.19V13.7775C24.2549 13.53 24.8324 12.9525 25.2449 12.2925Z" fill="white"/>
</svg>
